<svg xmlns="http://www.w3.org/2000/svg" viewBox="0 0 136.03 109.36"><defs><style>.cls-1{fill:#febf4c;}</style></defs><g id="Layer_2" data-name="Layer 2"><g id="Layer_1-2" data-name="Layer 1"><path class="cls-1" d="M35.89,1.19h0a0,0,0,0,1,0,0v94.7a13.38,13.38,0,0,1-13.38,13.38h0a0,0,0,0,1,0,0V14.57A13.38,13.38,0,0,1,35.89,1.19Z" transform="translate(-17.37 13.59) rotate(-20.34)"/><path class="cls-1" d="M95.68,9.31a14.32,14.32,0,0,0-5-6.66A13.63,13.63,0,0,0,83.21,0a14.93,14.93,0,0,0-8,1.71,13.32,13.32,0,0,0-6.81,11.62v94.9h.36A13.32,13.32,0,0,0,82.13,94.92V12.31l31.8,87.82a13.52,13.52,0,0,0,17.65,8.3Z"/><path class="cls-1" d="M121.53,1.87h2.23a13.38,13.38,0,0,1,13.38,13.38v0a0,0,0,0,1,0,0H121.53a0,0,0,0,1,0,0V1.87A0,0,0,0,1,121.53,1.87Z" transform="translate(120.78 137.9) rotate(-90)"/><path class="cls-1" d="M37.77,1.14H40A13.38,13.38,0,0,1,53.38,14.52v0a0,0,0,0,1,0,0H37.77a0,0,0,0,1,0,0V1.14A0,0,0,0,1,37.77,1.14Z" transform="translate(91.15 15.66) rotate(180)"/><path class="cls-1" d="M0,95.39H2.23a13.38,13.38,0,0,1,13.38,13.38v0a0,0,0,0,1,0,0H0a0,0,0,0,1,0,0V95.39A0,0,0,0,1,0,95.39Z"/></g></g></svg>