<svg xmlns="http://www.w3.org/2000/svg" viewBox="0 0 25.33 20.36"><defs><style>.cls-1{fill:#febf4c;}</style></defs><g id="Layer_2" data-name="Layer 2"><g id="Layer_1-2" data-name="Layer 1"><path class="cls-1" d="M6.68.22h0a0,0,0,0,1,0,0V17.86a2.49,2.49,0,0,1-2.49,2.49h0a0,0,0,0,1,0,0V2.71A2.49,2.49,0,0,1,6.68.22Z" transform="translate(-3.24 2.53) rotate(-20.34)"/><path class="cls-1" d="M17.82,1.73A2.66,2.66,0,0,0,16.89.49,2.57,2.57,0,0,0,15.49,0,2.74,2.74,0,0,0,14,.32a2.51,2.51,0,0,0-1,1,2.44,2.44,0,0,0-.28,1.15V20.16h.06a2.48,2.48,0,0,0,2.48-2.48V2.29l5.93,16.36a2.51,2.51,0,0,0,3.28,1.54Z"/><path class="cls-1" d="M22.63.35H23a2.49,2.49,0,0,1,2.49,2.49v0a0,0,0,0,1,0,0H22.63a0,0,0,0,1,0,0V.35A0,0,0,0,1,22.63.35Z" transform="translate(22.49 25.68) rotate(-90)"/><path class="cls-1" d="M7,.21h.42A2.49,2.49,0,0,1,9.94,2.7v0a0,0,0,0,1,0,0H7a0,0,0,0,1,0,0V.21A0,0,0,0,1,7,.21Z" transform="translate(16.97 2.92) rotate(180)"/><path class="cls-1" d="M0,17.76H.42a2.49,2.49,0,0,1,2.49,2.49v0a0,0,0,0,1,0,0H0a0,0,0,0,1,0,0V17.76A0,0,0,0,1,0,17.76Z"/></g></g></svg>