<svg xmlns="http://www.w3.org/2000/svg" viewBox="0 0 402.27 323.41"><defs><style>.cls-1{fill:#f7dcdb;}</style></defs><g id="Layer_2" data-name="Layer 2"><g id="Layer_1-2" data-name="Layer 1"><path class="cls-1" d="M106.15,3.53h0a0,0,0,0,1,0,0v280a39.57,39.57,0,0,1-39.57,39.57h0a0,0,0,0,1,0,0V43.1A39.57,39.57,0,0,1,106.15,3.53Z" transform="translate(-51.38 40.19) rotate(-20.34)"/><path class="cls-1" d="M283,27.54A42.39,42.39,0,0,0,268.3,7.84,40,40,0,0,0,246.07,0c-8.25-.28-16.29,1-23.55,5.05a39.37,39.37,0,0,0-20.11,34.37V320.1h1.06a39.4,39.4,0,0,0,39.4-39.41V36.41l94.05,259.71c7.93,21.82,31.29,32.81,52.19,24.53Z"/><path class="cls-1" d="M359.4,5.52H366a39.57,39.57,0,0,1,39.57,39.57v0a0,0,0,0,1,0,0H359.4a0,0,0,0,1,0,0V5.52A0,0,0,0,1,359.4,5.52Z" transform="translate(357.18 407.79) rotate(-90)"/><path class="cls-1" d="M111.69,3.37h6.59a39.57,39.57,0,0,1,39.57,39.57v0a0,0,0,0,1,0,0H111.69a0,0,0,0,1,0,0V3.37A0,0,0,0,1,111.69,3.37Z" transform="translate(269.55 46.32) rotate(180)"/><path class="cls-1" d="M0,282.08H6.59a39.57,39.57,0,0,1,39.57,39.57v0a0,0,0,0,1,0,0H0a0,0,0,0,1,0,0V282.08A0,0,0,0,1,0,282.08Z"/></g></g></svg>