<svg xmlns="http://www.w3.org/2000/svg" viewBox="0 0 45.99 36.98"><defs><style>.cls-1{fill:#f7dcdb;}</style></defs><g id="Layer_2" data-name="Layer 2"><g id="Layer_1-2" data-name="Layer 1"><path class="cls-1" d="M12.14.4h0a0,0,0,0,1,0,0v32a4.52,4.52,0,0,1-4.52,4.52h0a0,0,0,0,1,0,0v-32A4.52,4.52,0,0,1,12.14.4Z" transform="translate(-5.87 4.6) rotate(-20.34)"/><path class="cls-1" d="M32.35,3.15A4.81,4.81,0,0,0,30.68.9,4.69,4.69,0,0,0,28.13,0a5,5,0,0,0-2.69.58,4.54,4.54,0,0,0-2.3,3.93V36.6h.12a4.51,4.51,0,0,0,4.51-4.51V4.16l10.75,29.7a4.57,4.57,0,0,0,6,2.8Z"/><path class="cls-1" d="M41.09.63h.75a4.52,4.52,0,0,1,4.52,4.52v0a0,0,0,0,1,0,0H41.09a0,0,0,0,1,0,0V.63A0,0,0,0,1,41.09.63Z" transform="translate(40.84 46.62) rotate(-90)"/><path class="cls-1" d="M12.77.39h.75A4.52,4.52,0,0,1,18,4.91v0a0,0,0,0,1,0,0H12.77a0,0,0,0,1,0,0V.39A0,0,0,0,1,12.77.39Z" transform="translate(30.82 5.3) rotate(180)"/><path class="cls-1" d="M0,32.25H.75a4.52,4.52,0,0,1,4.52,4.52v0a0,0,0,0,1,0,0H0a0,0,0,0,1,0,0V32.25A0,0,0,0,1,0,32.25Z"/></g></g></svg>